<?xml version="1.0" encoding="utf-8"?>
<!DOCTYPE svg PUBLIC "-//W3C//DTD SVG 1.1//EN" "http://www.w3.org/Graphics/SVG/1.1/DTD/svg11.dtd">
<svg x="0" y="0" width="640" height="500" overflow="hidden" preserveAspectRatio="xMidYMid" font-size="0" font-style="normal" font-weight="400" xml:space="default" text-rendering="geometricPrecision" user-select="none" xmlns="http://www.w3.org/2000/svg" xmlns:xlink="http://www.w3.org/1999/xlink" xmlns:xml="http://www.w3.org/XML/1998/namespace" version="1.1">
  <desc xml:space="default">Created with JSCharting</desc>
  <defs xml:space="default">
    <clipPath id="_jsc11094" xml:space="default">
      <path d="M0.5 0.932031 L631.5 0.932031 L631.5 462.932 L0.5 462.932 z" xml:space="default" style="fill:none;" />
    </clipPath>
    <clipPath id="_jsc11291" xml:space="default" clip-rule="evenodd">
      <path d="M-10 -10 L642 -10 L642 473.432 L-10 473.432 z M138.8741 19.5698 A6 6 0 1 1 138.5682 19.5776 z" clip-rule="evenOdd" xml:space="default" style="fill:none;" />
    </clipPath>
    <clipPath id="_jsc11294" xml:space="default" clip-rule="evenodd">
      <path d="M-10 -10 L642 -10 L642 473.432 L-10 473.432 z M138.8741 19.5698 A6 6 0 1 1 138.5682 19.5776 z" clip-rule="evenOdd" xml:space="default" style="fill:none;" />
    </clipPath>
    <linearGradient x1="0" y1="0" x2="0" y2="1" gradientUnits="objectBoundingBox" id="_jsc11301" xml:space="default">
      <stop offset="0%" stop-color="#4285F4" stop-opacity="1" xml:space="default" />
      <stop offset="0%" stop-color="#4285F4" stop-opacity="1" xml:space="default" />
      <stop offset="8%" stop-color="#F0F2FD" stop-opacity="1" xml:space="default" />
      <stop offset="8%" stop-color="#FFFFFF" stop-opacity="1" xml:space="default" />
      <stop offset="92%" stop-color="#FFFFFF" stop-opacity="1" xml:space="default" />
      <stop offset="92%" stop-color="#E6E9FD" stop-opacity="1" xml:space="default" />
      <stop offset="100%" stop-color="#4285F4" stop-opacity="1" xml:space="default" />
      <stop offset="100%" stop-color="#4285F4" stop-opacity="1" xml:space="default" />
    </linearGradient>
  </defs>
  <g xml:space="default">
    <g transform="translate(3, 3)" xml:space="default">
      <path d="M0.5 5.5 L0.5 0.5 L5.5 0.5 L628.5 0.5 L633.5 0.5 L633.5 5.5 L633.5 488.5 L633.5 493.5 L628.5 493.5 L5.5 493.5 L0.5 493.5 L0.5 488.5 z" xml:space="default" style="fill:#FFFFFF;" />
      <g transform="translate(1, 1)" xml:space="default">
        <g xml:space="default">
          <g xml:space="default">
            <g xml:space="default">
              <g xml:space="default" />
              <g xml:space="default">
                <g xml:space="default">
                  <g transform="translate(278.4978, 0)" xml:space="default">
                    <path d="M0.0021975 5.5 L5.002197 0.5 L70.0022 0.5 L75.0022 0.5 L75.0022 5.5 L75.0022 23.5 L75.0022 28.5 L70.0022 28.5 L5.002197 28.5 L0.0021975 28.5 L0.0021975 23.5 z" xml:space="default" style="fill:none;" />
                    <g font-size="15" font-weight="400" transform="translate(6.5, 6.5)" xml:space="default" style="fill:#323232;">
                      <text xml:space="default">
                        <tspan xml:space="default" x="0px" y="14.3725" white-space="pre">Matching </tspan>
                      </text>
                    </g>
                  </g>
                </g>
              </g>
            </g>
            <g transform="translate(0, 28.56797)" xml:space="default">
              <g xml:space="default">
                <g xml:space="default" />
              </g>
              <g xml:space="default">
                <g xml:space="default">
                  <g xml:space="default" />
                </g>
                <g transform="translate(632, 0)" xml:space="default">
                  <g xml:space="default" />
                </g>
                <g xml:space="default">
                  <g xml:space="default">
                    <g clip-path="url(#_jsc11094)" xml:space="default">
                      <g xml:space="default">
                        <rect x="1" y="0.432031" width="631" height="463" xml:space="default" style="fill:rgba(0,0,0,0);" />
                      </g>
                      <g transform="translate(0.5, 0.5)" xml:space="default" />
                      <g transform="translate(0.5, 0.5)" xml:space="default" />
                      <g transform="translate(0.5, 0.5)" xml:space="default">
                        <g transform="translate(0.5, 0.5)" xml:space="default">
                          <g transform="translate(84.51254, 63.99984)" xml:space="default">
                            <g xml:space="default">
                              <g xml:space="default">
                                <g transform="translate(5, 5)" xml:space="default">
                                  <path d="M0.4874643 5.432193 L0.4874643 0.4321932 L5.487464 0.4321932 L445.4875 0.4321932 L450.4875 0.4321932 L450.4875 5.432193 L450.4875 446.4322 L450.4875 451.4322 L445.4875 451.4322 L5.487464 451.4322 L0.4874643 451.4322 L0.4874643 446.4322 z" fill-rule="evenOdd" stroke-width="0" stroke-linejoin="bevel" xml:space="default" style="fill:none;" />
                                  <g transform="translate(82.61519, 33.86223)" xml:space="default">
                                    <g xml:space="default">
                                      <rect x="0.8722763" y="0.5699622" width="276" height="406" xml:space="default" style="fill:rgba(0,0,0,0);" />
                                      <path d="M57.53618 27.0701 A138.334 138.334 0 1 1 57.42431 27.15147 L138.8469 138.9847 A0 0 0 1 0 138.8469 138.9847 z" xml:space="default" style="fill:#F9F9F9;" />
                                    </g>
                                    <g xml:space="default">
                                      <g xml:space="default" z-index="1">
                                        <path d="M138.8469 -4.349349 L138.8469 0.650651" stroke="#808080" stroke-linejoin="bevel" xml:space="default" style="fill:none;" />
                                        <path d="M275.1656 94.69203 L270.4104 96.23711" stroke="#808080" stroke-linejoin="bevel" xml:space="default" style="fill:none;" />
                                        <path d="M223.0965 254.9444 L220.1576 250.8993" stroke="#808080" stroke-linejoin="bevel" xml:space="default" style="fill:none;" />
                                        <path d="M54.59726 254.9444 L57.53618 250.8993" stroke="#808080" stroke-linejoin="bevel" xml:space="default" style="fill:none;" />
                                        <path d="M2.528121 94.69203 L7.283404 96.23711" stroke="#808080" stroke-linejoin="bevel" xml:space="default" style="fill:none;" />
                                        <path d="M0 0" stroke="#808080" stroke-linejoin="bevel" xml:space="default" style="fill:none;" />
                                        <path d="M0 0" stroke="#808080" stroke-linejoin="bevel" xml:space="default" style="fill:none;" />
                                        <path d="M0 0" stroke="#808080" stroke-linejoin="bevel" xml:space="default" style="fill:none;" />
                                        <path d="M0 0" stroke="#808080" stroke-linejoin="bevel" xml:space="default" style="fill:none;" />
                                        <path d="M0 0" stroke="#808080" stroke-linejoin="bevel" xml:space="default" style="fill:none;" />
                                        <path d="M0 0" stroke="#808080" stroke-linejoin="bevel" xml:space="default" style="fill:none;" />
                                        <path d="M0 0" stroke="#808080" stroke-linejoin="bevel" xml:space="default" style="fill:none;" />
                                      </g>
                                    </g>
                                    <g xml:space="default">
                                      <g xml:space="default">
                                        <g transform="translate(0.5, 0.5)" xml:space="default">
                                          <path d="M138.8469 138.9847 L138.8469 138.9847 L138.8469 138.9847 L138.8469 138.9847 L138.8469 138.9847 z M138.8469 115.929 L160.7741 131.8601 L152.3987 157.6371 L125.2951 157.6371 L116.9196 131.8601 z" fill-rule="evenOdd" xml:space="default" z-index="4" style="fill:rgba(227,227,227,0.4117647);" />
                                          <path d="M138.8469 92.87334 L182.7014 124.7355 L165.9505 176.2895 L111.7433 176.2895 L94.99239 124.7355 z M138.8469 69.81767 L204.6286 117.6109 L179.5022 194.942 L98.19154 194.942 L73.06515 117.6109 z" fill-rule="evenOdd" xml:space="default" z-index="4" style="fill:rgba(227,227,227,0.4117647);" />
                                          <path d="M138.8469 46.76199 L226.5559 110.4863 L193.054 213.5944 L84.63975 213.5944 L51.1379 110.4863 z M138.8469 23.70632 L248.4831 103.3617 L206.6058 232.2468 L71.08797 232.2468 L29.21065 103.3617 z" fill-rule="evenOdd" xml:space="default" z-index="4" style="fill:rgba(227,227,227,0.4117647);" />
                                          <path d="M138.8469 138.9847 L138.8469 0.650651" stroke="#D3D3D3" stroke-linejoin="bevel" xml:space="default" z-index="5" style="fill:none;" />
                                          <path d="M138.8469 138.9847 L270.4104 96.23711" stroke="#D3D3D3" stroke-linejoin="bevel" xml:space="default" z-index="5" style="fill:none;" />
                                          <path d="M138.8469 138.9847 L220.1576 250.8993" stroke="#D3D3D3" stroke-linejoin="bevel" xml:space="default" z-index="5" style="fill:none;" />
                                          <path d="M138.8469 138.9847 L57.53618 250.8993" stroke="#D3D3D3" stroke-linejoin="bevel" xml:space="default" z-index="5" style="fill:none;" />
                                          <path d="M138.8469 138.9847 L7.283404 96.23711" stroke="#D3D3D3" stroke-linejoin="bevel" xml:space="default" z-index="5" style="fill:none;" />
                                          <path d="M138.8469 138.9847 L138.8469 138.9847 L138.8469 138.9847 L138.8469 138.9847 L138.8469 138.9847 z" stroke="#D3D3D3" stroke-linejoin="bevel" xml:space="default" z-index="5" style="fill:none;" />
                                          <path d="M138.8469 115.929 L160.7741 131.8601 L152.3987 157.6371 L125.2951 157.6371 L116.9196 131.8601 z" stroke="#D3D3D3" stroke-linejoin="bevel" xml:space="default" z-index="5" style="fill:none;" />
                                          <path d="M138.8469 92.87334 L182.7014 124.7355 L165.9505 176.2895 L111.7433 176.2895 L94.99239 124.7355 z" stroke="#D3D3D3" stroke-linejoin="bevel" xml:space="default" z-index="5" style="fill:none;" />
                                          <path d="M138.8469 69.81767 L204.6286 117.6109 L179.5022 194.942 L98.19154 194.942 L73.06515 117.6109 z" stroke="#D3D3D3" stroke-linejoin="bevel" xml:space="default" z-index="5" style="fill:none;" />
                                          <path d="M138.8469 46.76199 L226.5559 110.4863 L193.054 213.5944 L84.63975 213.5944 L51.1379 110.4863 z" stroke="#D3D3D3" stroke-linejoin="bevel" xml:space="default" z-index="5" style="fill:none;" />
                                          <path d="M138.8469 23.70632 L248.4831 103.3617 L206.6058 232.2468 L71.08797 232.2468 L29.21065 103.3617 z" stroke="#D3D3D3" stroke-linejoin="bevel" xml:space="default" z-index="5" style="fill:none;" />
                                          <path d="M138.8469 0.650651 L270.4104 96.23711 L220.1576 250.8993 L57.53618 250.8993 L7.283404 96.23711 z" stroke="#D3D3D3" stroke-linejoin="bevel" xml:space="default" z-index="5" style="fill:none;" />
                                        </g>
                                        <g transform="translate(0.5, 0.5)" xml:space="default" />
                                        <g transform="translate(0.5, 0.5)" xml:space="default">
                                          <g xml:space="default" z-index="1">
                                            <g transform="translate(0.5, -0.5)" xml:space="default">
                                              <g xml:space="default">
                                                <path d="M138.8469 0.650651 L270.4104 96.23711 L220.1576 250.8993 L57.53618 250.8993 L7.283404 96.23711 z" stroke="#A0A0A0" stroke-linejoin="bevel" xml:space="default" style="fill:none;" />
                                                <g xml:space="default" z-index="2" />
                                              </g>
                                              <g xml:space="default">
                                                <g display="none" xml:space="default">
                                                  <rect x="-0.1277237" y="-0.4300378" width="0" height="0" display="none" xml:space="default" style="fill:rgba(255,255,255,0);" />
                                                  <g display="none" xml:space="default" />
                                                </g>
                                              </g>
                                            </g>
                                            <g transform="translate(0.5, 0.5)" xml:space="default">
                                              <g transform="rotate(-89.9, 0, 0)" xml:space="default">
                                                <g display="none" xml:space="default">
                                                  <rect x="-0.1277237" y="-0.4300378" width="0" height="0" display="none" xml:space="default" style="fill:rgba(255,255,255,0);" />
                                                  <g display="none" xml:space="default" />
                                                </g>
                                              </g>
                                              <g xml:space="default">
                                                <path d="M0 0" stroke="#A0A0A0" stroke-linejoin="bevel" xml:space="default" style="fill:none;" />
                                                <g xml:space="default" z-index="2" />
                                              </g>
                                            </g>
                                            <g transform="translate(102.6447, -24.80372)" xml:space="default">
                                              <path d="M-0.2724607 4.873686 L-0.2724607 -0.1263138 L4.72754 -0.1263138 L67.72754 -0.1263138 L72.72754 -0.1263138 L72.72754 4.873686 L72.72754 15.87369 L72.72754 20.87369 L67.72754 20.87369 L4.72754 20.87369 L-0.2724607 20.87369 L-0.2724607 15.87369 z" stroke-width="0" stroke-linejoin="bevel" xml:space="default" style="fill:none;" />
                                              <g font-size="12px" transform="translate(3, 3)" xml:space="default" style="fill:#282828;">
                                                <text xml:space="default">
                                                  <tspan xml:space="default" x="0px" y="11.498" white-space="pre">Engagement</tspan>
                                                </text>
                                              </g>
                                            </g>
                                            <g transform="translate(275.1656, 81.30447)" xml:space="default">
                                              <path d="M0.2066263 4.765493 L0.2066263 -0.2345068 L5.206626 -0.2345068 L78.20663 -0.2345068 L83.20663 -0.2345068 L83.20663 4.765493 L83.20663 15.76549 L83.20663 20.76549 L78.20663 20.76549 L5.206626 20.76549 L0.2066263 20.76549 L0.2066263 15.76549 z" stroke-width="0" stroke-linejoin="bevel" xml:space="default" style="fill:none;" />
                                              <g font-size="12px" transform="translate(3, 3)" xml:space="default" style="fill:#282828;">
                                                <text xml:space="default">
                                                  <tspan xml:space="default" x="0px" y="11.498" white-space="pre">Selbstreflexion</tspan>
                                                </text>
                                              </g>
                                            </g>
                                            <g transform="translate(221.179, 254.9444)" xml:space="default">
                                              <path d="M0.1932683 5.125612 L0.1932683 0.1256122 L5.193268 0.1256122 L69.19327 0.1256122 L74.19327 0.1256122 L74.19327 5.125612 L74.19327 15.12561 L74.19327 20.12561 L69.19327 20.12561 L5.193268 20.12561 L0.1932683 20.12561 L0.1932683 15.12561 z" stroke-width="0" stroke-linejoin="bevel" xml:space="default" style="fill:none;" />
                                              <g font-size="12px" transform="translate(3, 3)" xml:space="default" style="fill:#282828;">
                                                <text xml:space="default">
                                                  <tspan xml:space="default" x="0px" y="11.498" white-space="pre">Belastbarkeit</tspan>
                                                </text>
                                              </g>
                                            </g>
                                            <g transform="translate(1.115569, 254.9444)" xml:space="default">
                                              <path d="M0.2567073 5.125612 L0.2567073 0.1256122 L5.256707 0.1256122 L50.25671 0.1256122 L55.25671 0.1256122 L55.25671 5.125612 L55.25671 15.12561 L55.25671 20.12561 L50.25671 20.12561 L5.256707 20.12561 L0.2567073 20.12561 L0.2567073 15.12561 z" stroke-width="0" stroke-linejoin="bevel" xml:space="default" style="fill:none;" />
                                              <g font-size="12px" transform="translate(3, 3)" xml:space="default" style="fill:#282828;">
                                                <text xml:space="default">
                                                  <tspan xml:space="default" x="0px" y="11.498" white-space="pre">Offenheit</tspan>
                                                </text>
                                              </g>
                                            </g>
                                            <g transform="translate(-72.57735, 81.30447)" xml:space="default">
                                              <path d="M-0.05037567 4.765493 L-0.05037567 -0.2345068 L4.949625 -0.2345068 L69.94962 -0.2345068 L74.94962 -0.2345068 L74.94962 4.765493 L74.94962 15.76549 L74.94962 20.76549 L69.94962 20.76549 L4.949625 20.76549 L-0.05037567 20.76549 L-0.05037567 15.76549 z" stroke-width="0" stroke-linejoin="bevel" xml:space="default" style="fill:none;" />
                                              <g font-size="12px" transform="translate(3, 3)" xml:space="default" style="fill:#282828;">
                                                <text xml:space="default">
                                                  <tspan xml:space="default" x="0px" y="11.498" white-space="pre">Begeisterung</tspan>
                                                </text>
                                              </g>
                                            </g>
                                            <g transform="translate(135.5715, 131.7575) rotate(36, 3.27539, 7.227188)" xml:space="default">
                                              <path d="M-0.1992187 3.812467 L-0.1992187 0.3124672 L3.300781 0.3124672 L3.300781 0.3124672 L6.800781 0.3124672 L6.800781 3.812467 L6.800781 10.81247 L6.800781 14.31247 L3.300781 14.31247 L3.300781 14.31247 L-0.1992187 14.31247 L-0.1992187 10.81247 z" stroke-width="0" stroke-linejoin="bevel" xml:space="default" style="fill:none;" />
                                              <g font-size="12px" xml:space="default" style="fill:#282828;">
                                                <text xml:space="default">
                                                  <tspan xml:space="default" x="0px" y="11.498" white-space="pre">0</tspan>
                                                </text>
                                              </g>
                                            </g>
                                            <g transform="translate(143.2597, 116.6674) rotate(36, 6.550782, 7.227188)" xml:space="default">
                                              <path d="M0.1125483 5.4026 L0.1125483 0.4026002 L5.112548 0.4026002 L8.112548 0.4026002 L13.11255 0.4026002 L13.11255 5.4026 L13.11255 9.4026 L13.11255 14.4026 L8.112548 14.4026 L5.112548 14.4026 L0.1125483 14.4026 L0.1125483 9.4026 z" stroke-width="0" stroke-linejoin="bevel" xml:space="default" style="fill:none;" />
                                              <g font-size="12px" xml:space="default" style="fill:#282828;">
                                                <text xml:space="default">
                                                  <tspan xml:space="default" x="0px" y="11.498" white-space="pre">20</tspan>
                                                </text>
                                              </g>
                                            </g>
                                            <g transform="translate(154.2234, 101.5772) rotate(36, 6.550782, 7.227188)" xml:space="default">
                                              <path d="M0.1489253 5.492733 L0.1489253 0.4927332 L5.148925 0.4927332 L8.148926 0.4927332 L13.14893 0.4927332 L13.14893 5.492733 L13.14893 9.492733 L13.14893 14.49273 L8.148926 14.49273 L5.148925 14.49273 L0.1489253 14.49273 L0.1489253 9.492733 z" stroke-width="0" stroke-linejoin="bevel" xml:space="default" style="fill:none;" />
                                              <g font-size="12px" xml:space="default" style="fill:#282828;">
                                                <text xml:space="default">
                                                  <tspan xml:space="default" x="0px" y="11.498" white-space="pre">40</tspan>
                                                </text>
                                              </g>
                                            </g>
                                            <g transform="translate(165.187, 86.4871) rotate(36, 6.550782, 7.227188)" xml:space="default">
                                              <path d="M0.1853013 4.582867 L0.1853013 -0.4171328 L5.185301 -0.4171328 L8.185302 -0.4171328 L13.1853 -0.4171328 L13.1853 4.582867 L13.1853 9.582868 L13.1853 14.58287 L8.185302 14.58287 L5.185301 14.58287 L0.1853013 14.58287 L0.1853013 9.582868 z" stroke-width="0" stroke-linejoin="bevel" xml:space="default" style="fill:none;" />
                                              <g font-size="12px" xml:space="default" style="fill:#282828;">
                                                <text xml:space="default">
                                                  <tspan xml:space="default" x="0px" y="11.498" white-space="pre">60</tspan>
                                                </text>
                                              </g>
                                            </g>
                                            <g transform="translate(176.1506, 71.39697) rotate(36, 6.550782, 7.227188)" xml:space="default">
                                              <path d="M0.2216783 4.673 L0.2216783 -0.3269998 L5.221678 -0.3269998 L8.221679 -0.3269998 L13.22168 -0.3269998 L13.22168 4.673 L13.22168 9.673 L13.22168 14.673 L8.221679 14.673 L5.221678 14.673 L0.2216783 14.673 L0.2216783 9.673 z" stroke-width="0" stroke-linejoin="bevel" xml:space="default" style="fill:none;" />
                                              <g font-size="12px" xml:space="default" style="fill:#282828;">
                                                <text xml:space="default">
                                                  <tspan xml:space="default" x="0px" y="11.498" white-space="pre">80</tspan>
                                                </text>
                                              </g>
                                            </g>
                                            <g transform="translate(183.8388, 56.30683) rotate(36, 9.826172, 7.227188)" xml:space="default">
                                              <path d="M-0.4665547 4.763133 L-0.4665547 -0.2368668 L4.533445 -0.2368668 L14.53345 -0.2368668 L19.53345 -0.2368668 L19.53345 4.763133 L19.53345 9.763133 L19.53345 14.76313 L14.53345 14.76313 L4.533445 14.76313 L-0.4665547 14.76313 L-0.4665547 9.763133 z" stroke-width="0" stroke-linejoin="bevel" xml:space="default" style="fill:none;" />
                                              <g font-size="12px" xml:space="default" style="fill:#282828;">
                                                <text xml:space="default">
                                                  <tspan xml:space="default" x="0px" y="11.498" white-space="pre">100</tspan>
                                                </text>
                                              </g>
                                            </g>
                                            <g transform="translate(194.8025, 41.2167) rotate(36, 9.826172, 7.227188)" xml:space="default">
                                              <path d="M-0.4301787 4.853266 L-0.4301787 -0.1467338 L4.569821 -0.1467338 L14.56982 -0.1467338 L19.56982 -0.1467338 L19.56982 4.853266 L19.56982 9.853266 L19.56982 14.85327 L14.56982 14.85327 L4.569821 14.85327 L-0.4301787 14.85327 L-0.4301787 9.853266 z" stroke-width="0" stroke-linejoin="bevel" xml:space="default" style="fill:none;" />
                                              <g font-size="12px" xml:space="default" style="fill:#282828;">
                                                <text xml:space="default">
                                                  <tspan xml:space="default" x="0px" y="11.498" white-space="pre">120</tspan>
                                                </text>
                                              </g>
                                            </g>
                                          </g>
                                        </g>
                                        <g transform="translate(0.5, 0.5)" xml:space="default">
                                          <path d="M138.8741 138.5698 L138.8741 138.5698 L138.8741 138.5698 L138.8741 138.5698 L138.8741 138.5698 M138.8741 25.5698 L215.8741 113.5698 L196.8741 218.5698 L75.87405 225.5698 L31.87405 104.5698 z" display="block" fill-rule="evenOdd" opacity="0.7" xml:space="default" z-index="8" style="fill:#4285F4;" />
                                          <path d="M138.8741 25.5698 L215.8741 113.5698 L196.8741 218.5698 L75.87405 225.5698 L31.87405 104.5698 z" display="block" stroke="#366DC9" stroke-width="2" stroke-linejoin="bevel" stroke-opacity="0.7" xml:space="default" z-index="8" style="fill:none;" />
                                          <path d="M138.8741 19.5698 A6 6 0 1 1 138.5682 19.5776 z" display="block" stroke="#FFFFFF" fill-rule="evenOdd" stroke-linejoin="bevel" stroke-opacity="0.7" xml:space="default" z-index="9" r="6" style="fill:rgba(66,133,244,0.6980392);" />
                                          <path d="M215.8741 107.5698 A6 6 0 1 1 215.5682 107.5776 z" display="block" stroke="#FFFFFF" fill-rule="evenOdd" stroke-linejoin="bevel" stroke-opacity="0.7" xml:space="default" z-index="9" r="6" style="fill:rgba(66,133,244,0.6980392);" />
                                          <path d="M196.8741 212.5698 A6 6 0 1 1 196.5682 212.5776 z" display="block" stroke="#FFFFFF" fill-rule="evenOdd" stroke-linejoin="bevel" stroke-opacity="0.7" xml:space="default" z-index="9" r="6" style="fill:rgba(66,133,244,0.6980392);" />
                                          <path d="M75.87405 219.5698 A6 6 0 1 1 75.56818 219.5776 z" display="block" stroke="#FFFFFF" fill-rule="evenOdd" stroke-linejoin="bevel" stroke-opacity="0.7" xml:space="default" z-index="9" r="6" style="fill:rgba(66,133,244,0.6980392);" />
                                          <path d="M31.87405 98.5698 A6 6 0 1 1 31.56818 98.5776 z" display="block" stroke="#FFFFFF" fill-rule="evenOdd" stroke-linejoin="bevel" stroke-opacity="0.7" xml:space="default" z-index="9" r="6" style="fill:rgba(66,133,244,0.6980392);" />
                                        </g>
                                        <g transform="translate(0.5, 0.5)" xml:space="default" />
                                        <g transform="translate(0.5, 0.5)" xml:space="default">
                                          <path d="M0 0" clip-path="url(#_jsc11291)" stroke="#DEDEAC" fill-rule="evenOdd" stroke-width="3.6" stroke-linejoin="round" stroke-opacity="0.9" xml:space="default" z-index="1" pointer-events="none" style="fill:none;" />
                                          <path d="M0 0" clip-path="url(#_jsc11294)" stroke="#DEDEAC" fill-rule="evenOdd" stroke-width="6" stroke-linejoin="round" stroke-opacity="0.36" xml:space="default" z-index="1" pointer-events="none" style="fill:none;" />
                                        </g>
                                        <g transform="translate(0.5, 0.5)" xml:space="default">
                                          <g xml:space="default" z-index="1" />
                                        </g>
                                      </g>
                                    </g>
                                    <g xml:space="default" />
                                  </g>
                                </g>
                              </g>
                              <g xml:space="default" />
                            </g>
                          </g>
                        </g>
                      </g>
                      <g transform="translate(0.5, 0.5)" xml:space="default" />
                      <g transform="translate(0.5, 0.5)" xml:space="default" />
                    </g>
                    <g xml:space="default" />
                    <g xml:space="default" />
                    <path d="M0.5 0.932031 L631.5 0.932031 L631.5 462.932 L0.5 462.932 z" xml:space="default" style="fill:none;" />
                  </g>
                </g>
                <g transform="translate(0, 463.432)" xml:space="default">
                  <g xml:space="default" />
                </g>
                <g transform="translate(632, 463.432)" xml:space="default">
                  <g xml:space="default" />
                </g>
                <g xml:space="default" z-index="1">
                  <g xml:space="default">
                    <g xml:space="default" />
                  </g>
                </g>
                <g xml:space="default" z-index="1">
                  <g xml:space="default">
                    <g xml:space="default" />
                  </g>
                </g>
                <g transform="translate(632, 0)" xml:space="default" z-index="1">
                  <g xml:space="default">
                    <g xml:space="default" />
                  </g>
                </g>
                <g transform="translate(0, 463.432)" xml:space="default" z-index="1">
                  <g xml:space="default">
                    <g xml:space="default" />
                  </g>
                </g>
              </g>
              <g transform="translate(632, 0)" xml:space="default">
                <g xml:space="default" />
              </g>
            </g>
            <g transform="translate(0, 492)" xml:space="default">
              <g xml:space="default" />
            </g>
          </g>
        </g>
      </g>
      <g transform="translate(1, 1)" xml:space="default">
        <g display="none" xml:space="default">
          <g display="none" xml:space="default">
            <g display="none" xml:space="default">
              <rect x="0" y="0" width="0" height="0" display="none" xml:space="default" style="fill:rgba(255,255,255,0);" />
              <g display="none" xml:space="default" />
            </g>
            <g display="none" font-size="5" xml:space="default">
              <g display="none" transform="translate(5, 0)" xml:space="default">
                <text xml:space="default" display="none" />
                <g display="none" transform="translate(0, 2.511328)" xml:space="default">
                  <path d="M0 0 L10 0" display="none" stroke="#A9A9A9" xml:space="default" height="1" style="fill:none;" />
                </g>
              </g>
            </g>
          </g>
        </g>
      </g>
    </g>
    <g xml:space="default">
      <g display="none" transform="translate(425, 70.32533)" xml:space="default">
        <path d="M0 4.674672 L0 -0.325328 L5 -0.325328 L205 -0.325328 L210 -0.325328 L210 4.674672 L210 46.67467 L210 51.67467 L205 51.67467 L5 51.67467 L0 51.67467 L0 46.67467 z" display="none" stroke-width="0" xml:space="default" style="fill:rgba(0,0,0,0.6980392);" />
        <g display="none" xml:space="default">
          <g display="none" xml:space="default">
            <path d="M0 4.674672 L0 -0.325328 L5 -0.325328 L37 -0.325328 L42 -0.325328 L42 4.674672 L42 46.67467 L42 51.67467 L37 51.67467 L5 51.67467 L0 51.67467 L0 46.67467 z" display="none" stroke-width="0" xml:space="default" style="fill:none;" />
            <g display="none" opacity="0.7" xml:space="default" aria-label="png" cursor="pointer" user-select="none">
              <path d="M0 -0.325328 A0 0 0 0 1 0 -0.325328 L42 -0.325328 A0 0 0 0 1 42 -0.325328 L42 51.67467 A0 0 0 0 1 42 51.67467 L0 51.67467 A0 0 0 0 1 0 51.67467 z" display="none" stroke-width="0" xml:space="default" cursor="pointer" user-select="none" style="fill:none;" />
              <g display="none" transform="translate(5, 26)" xml:space="default" z-index="1" style="fill:#323232;" />
              <path d="M16.03333 29.50801 C16.16667 29.37467 16.3 29.10801 16.3 28.84134 C16.3 28.57467 16.3 28.30801 16.03333 28.04134 C15.9 27.77467 15.5 27.77467 15.23333 27.77467 L14.03333 27.77467 L14.03333 29.908 L15.23333 29.908 C15.5 29.908 15.76667 29.77467 16.03333 29.50801 z M34.43333 19.10801 L25.9 10.57467 C25.63333 10.30801 25.36667 10.17467 24.96667 10.17467 L9.5 10.17467 C8.7 10.17467 8.166667 10.708 8.166667 11.50801 L8.166667 40.84134 C8.166667 41.64134 8.7 42.17467 9.5 42.17467 L33.5 42.17467 C34.3 42.17467 34.83333 41.64134 34.83333 40.84134 L34.83333 20.04134 C34.83333 19.64134 34.7 19.37467 34.43333 19.10801 z M25.5 12.04134 L32.96667 19.50801 L25.5 19.50801 L25.5 12.04134 z M33.5 40.84134 L9.5 40.84134 L9.5 36.84134 L33.5 36.84134 L33.5 40.84134 z M12.56667 26.57467 L15.1 26.57467 C15.63333 26.57467 16.03333 26.70801 16.43333 26.84134 C16.83333 26.97467 17.1 27.24134 17.36667 27.64134 C17.63333 28.04134 17.63333 28.30801 17.63333 28.84134 C17.63333 29.50801 17.36667 30.04134 16.96667 30.44134 C16.56667 30.84134 15.9 30.97467 15.1 30.97467 L14.03333 30.97467 L14.03333 33.37467 L12.56667 33.37467 L12.56667 26.57467 z M18.56667 33.24134 L18.56667 26.57467 L19.9 26.57467 L22.56667 30.97467 L22.56667 26.57467 L23.9 26.57467 L23.9 33.24134 L22.56667 33.24134 L19.9 28.84134 L19.9 33.24134 L18.56667 33.24134 z M26.83333 31.64134 C27.23333 32.04134 27.5 32.17467 28.03333 32.17467 C28.56667 32.17467 28.96667 32.04134 29.1 31.908 L29.1 30.70801 L27.9 30.70801 L27.9 29.64134 L30.56667 29.64134 L30.56667 32.30801 C30.3 32.57467 30.03333 32.84134 29.5 32.97467 C29.1 33.10801 28.56667 33.24134 28.03333 33.24134 C27.5 33.24134 26.96667 33.10801 26.56667 32.84134 C26.16667 32.57467 25.76667 32.17467 25.5 31.77467 C25.36667 31.37467 25.1 30.70801 25.1 30.04134 L25.1 29.64134 C25.1 28.97467 25.23333 28.44134 25.5 27.908 C25.76667 27.37467 26.03333 27.10801 26.43333 26.84134 C26.83333 26.57467 27.36667 26.44134 27.9 26.44134 C28.7 26.44134 29.36667 26.57467 29.76667 26.97467 C30.16667 27.37467 30.43333 27.908 30.56667 28.57467 L29.23333 28.57467 C29.23333 28.17467 29.1 27.908 28.83333 27.77467 C28.56667 27.64134 28.3 27.50801 28.03333 27.50801 C27.63333 27.50801 27.23333 27.64134 26.96667 28.04134 C26.7 28.44134 26.56667 28.97467 26.56667 29.64134 L26.56667 30.04134 C26.56667 30.84134 26.56667 31.24134 26.83333 31.64134 z M33.5 23.50801 L9.5 23.50801 L9.5 11.50801 L24.16667 11.50801 L24.16667 19.50801 C24.16667 20.30801 24.7 20.84134 25.5 20.84134 L33.5 20.84134 L33.5 23.50801 z" display="none" fill-rule="evenOdd" xml:space="default" z-index="1" x="5" y="10" width="32" height="32" style="fill:#FFFFFF;" />
              <path d="M0 -0.325328 A0 0 0 0 1 0 -0.325328 L42 -0.325328 A0 0 0 0 1 42 -0.325328 L42 51.67467 A0 0 0 0 1 42 51.67467 L0 51.67467 A0 0 0 0 1 0 51.67467 z" display="none" opacity="0" xml:space="default" z-index="2" style="fill:#FFFFFF;" />
            </g>
          </g>
          <g display="none" transform="translate(42, 0)" xml:space="default">
            <path d="M0 4.674672 L0 -0.325328 L5 -0.325328 L37 -0.325328 L42 -0.325328 L42 4.674672 L42 46.67467 L42 51.67467 L37 51.67467 L5 51.67467 L0 51.67467 L0 46.67467 z" display="none" stroke-width="0" xml:space="default" style="fill:none;" />
            <g display="none" opacity="0.7" xml:space="default" aria-label="jpg" cursor="pointer" user-select="none">
              <path d="M0 -0.325328 A0 0 0 0 1 0 -0.325328 L42 -0.325328 A0 0 0 0 1 42 -0.325328 L42 51.67467 A0 0 0 0 1 42 51.67467 L0 51.67467 A0 0 0 0 1 0 51.67467 z" display="none" stroke-width="0" xml:space="default" cursor="pointer" user-select="none" style="fill:none;" />
              <g display="none" transform="translate(5, 26)" xml:space="default" z-index="1" style="fill:#323232;" />
              <path d="M22.03333 29.908 C22.3 29.64134 22.3 29.37467 22.3 29.10801 C22.3 28.70801 22.16667 28.44134 22.03333 28.17467 C21.76667 27.908 21.5 27.77467 21.1 27.77467 L19.63333 27.77467 L19.63333 30.17467 L20.96667 30.17467 C21.5 30.17467 21.63333 30.17467 22.03333 29.908 z M34.43333 19.10801 L25.9 10.57467 C25.63333 10.30801 25.36667 10.17467 24.96667 10.17467 L9.5 10.17467 C8.7 10.17467 8.166667 10.708 8.166667 11.50801 L8.166667 40.84134 C8.166667 41.64134 8.7 42.17467 9.5 42.17467 L33.5 42.17467 C34.3 42.17467 34.83333 41.64134 34.83333 40.84134 L34.83333 20.04134 C34.83333 19.64134 34.7 19.37467 34.43333 19.10801 z M25.5 12.04134 L32.96667 19.50801 L25.5 19.50801 L25.5 12.04134 z M33.5 40.84134 L9.5 40.84134 L9.5 36.84134 L33.5 36.84134 L33.5 40.84134 z M11.63333 31.908 L13.23333 31.908 C13.23333 32.30801 13.36667 32.57467 13.5 32.708 C13.63333 32.84134 13.9 32.97467 14.3 32.97467 C14.56667 32.97467 14.83333 32.84134 14.96667 32.708 C15.1 32.57467 15.23333 32.17467 15.23333 31.77467 L15.23333 26.57467 L16.83333 26.57467 L16.83333 31.77467 C16.83333 32.30801 16.7 32.708 16.56667 32.97467 C16.3 33.24134 16.3 33.50801 15.63333 33.77467 C15.23333 34.04134 14.83333 34.17467 14.3 34.17467 C13.5 34.17467 12.83333 33.908 12.43333 33.50801 C12.03333 33.10801 11.63333 32.708 11.63333 31.908 z M18.03333 34.17467 L18.03333 26.57467 L20.96667 26.57467 C21.5 26.57467 22.03333 26.70801 22.43333 26.84134 C22.83333 26.97467 23.23333 27.37467 23.36667 27.77467 C23.5 28.04134 23.76667 28.57467 23.76667 29.10801 C23.76667 29.908 23.5 30.44134 22.96667 30.84134 C22.43333 31.24134 21.76667 31.50801 20.83333 31.50801 L19.5 31.50801 L19.5 34.17467 L18.03333 34.17467 z M26.83333 32.44134 C27.1 32.84134 27.63333 33.10801 28.16667 33.10801 C28.7 33.10801 29.23333 32.97467 29.36667 32.708 L29.36667 31.37467 L27.9 31.37467 L27.9 30.17467 L30.83333 30.17467 L30.83333 33.24134 C30.56667 33.64134 30.16667 33.77467 29.63333 34.04134 C29.1 34.30801 28.56667 34.30801 27.9 34.30801 C27.23333 34.30801 26.7 34.17467 26.16667 33.908 C25.63333 33.64134 25.23333 33.24134 24.96667 32.708 C24.7 32.17467 24.56667 31.50801 24.56667 30.84134 L24.56667 30.17467 C24.56667 29.37467 24.7 28.70801 24.96667 28.17467 C25.23333 27.64134 25.5 27.24134 26.03333 26.97467 C26.56667 26.57467 27.1 26.44134 27.76667 26.44134 C28.7 26.44134 29.36667 26.70801 29.9 27.10801 C30.43333 27.50801 30.7 28.17467 30.83333 28.97467 L29.5 28.97467 C29.36667 28.57467 29.23333 28.30801 29.1 28.17467 C28.96667 28.04134 28.56667 27.77467 28.16667 27.77467 C27.63333 27.77467 27.23333 27.908 26.96667 28.30801 C26.7 28.70801 26.56667 29.24134 26.56667 30.04134 L26.56667 30.57467 C26.56667 30.97467 26.56667 32.04134 26.83333 32.44134 z M33.5 23.50801 L9.5 23.50801 L9.5 11.50801 L24.16667 11.50801 L24.16667 19.50801 C24.16667 20.30801 24.7 20.84134 25.5 20.84134 L33.5 20.84134 L33.5 23.50801 z" display="none" fill-rule="evenOdd" xml:space="default" z-index="1" x="5" y="10" width="32" height="32" style="fill:#FFFFFF;" />
              <path d="M0 -0.325328 A0 0 0 0 1 0 -0.325328 L42 -0.325328 A0 0 0 0 1 42 -0.325328 L42 51.67467 A0 0 0 0 1 42 51.67467 L0 51.67467 A0 0 0 0 1 0 51.67467 z" display="none" opacity="0" xml:space="default" z-index="2" style="fill:#FFFFFF;" />
            </g>
          </g>
          <g display="none" transform="translate(84, 0)" xml:space="default">
            <path d="M0 4.674672 L0 -0.325328 L5 -0.325328 L37 -0.325328 L42 -0.325328 L42 4.674672 L42 46.67467 L42 51.67467 L37 51.67467 L5 51.67467 L0 51.67467 L0 46.67467 z" display="none" stroke-width="0" xml:space="default" style="fill:none;" />
            <g display="none" opacity="0.7" xml:space="default" aria-label="pdf" cursor="pointer" user-select="none">
              <path d="M0 -0.325328 A0 0 0 0 1 0 -0.325328 L42 -0.325328 A0 0 0 0 1 42 -0.325328 L42 51.67467 A0 0 0 0 1 42 51.67467 L0 51.67467 A0 0 0 0 1 0 51.67467 z" display="none" stroke-width="0" xml:space="default" cursor="pointer" user-select="none" style="fill:none;" />
              <g display="none" transform="translate(5, 26)" xml:space="default" z-index="1" style="fill:#323232;" />
              <path d="M17.23333 28.70801 C17.23333 27.24134 14.83333 27.64134 14.83333 27.64134 L14.83333 29.77467 C14.83333 29.77467 17.23333 30.17467 17.23333 28.70801 z M23.23333 29.64134 C23.23333 28.97467 23.1 28.44134 22.83333 28.04134 C22.56667 27.64134 22.16667 27.50801 21.63333 27.50801 L20.96667 27.50801 L20.96667 31.908 L21.5 31.908 C22.03333 31.908 22.43333 31.77467 22.7 31.37467 C22.96667 30.97467 23.23333 30.57467 23.23333 29.908 L23.23333 29.64134 z M34.43333 19.10801 L25.9 10.57467 C25.63333 10.30801 25.36667 10.17467 24.96667 10.17467 L9.5 10.17467 C8.7 10.17467 8.166667 10.708 8.166667 11.50801 L8.166667 40.84134 C8.166667 41.64134 8.7 42.17467 9.5 42.17467 L33.5 42.17467 C34.3 42.17467 34.83333 41.64134 34.83333 40.84134 L34.83333 20.04134 C34.83333 19.64134 34.7 19.37467 34.43333 19.10801 z M25.5 12.04134 L32.96667 19.50801 L25.5 19.50801 L25.5 12.04134 z M33.5 40.84134 L9.5 40.84134 L9.5 36.84134 L33.5 36.84134 L33.5 40.84134 z M13.5 33.37467 L13.5 26.57467 L16.03333 26.57467 C16.56667 26.57467 16.96667 26.70801 17.36667 26.84134 C17.76667 26.97467 18.03333 27.24134 18.3 27.64134 C18.56667 28.04134 18.56667 28.30801 18.56667 28.84134 C18.56667 29.50801 18.3 30.04134 17.9 30.44134 C17.5 30.84134 16.83333 30.97467 16.03333 30.97467 L14.83333 30.97467 L14.83333 33.37467 L13.5 33.37467 z M19.5 32.97467 L19.5 26.57467 L21.5 26.57467 C22.03333 26.57467 22.56667 26.70801 23.1 26.97467 C23.5 27.24134 23.9 27.64134 24.16667 28.04134 C24.43333 28.44134 24.56667 29.10801 24.56667 29.64134 L24.56667 29.908 C24.56667 30.57467 24.43333 31.10801 24.16667 31.50801 C23.9 32.04134 23.5 32.30801 23.1 32.57467 C22.7 32.84134 22.16667 32.97467 21.5 32.97467 L19.5 32.97467 z M29.63333 29.24134 L29.63333 30.44134 L26.96667 30.44134 L26.96667 33.10801 L25.63333 33.10801 L25.63333 26.44134 L29.9 26.44134 L29.9 27.50801 L26.96667 27.50801 L26.96667 29.24134 L29.63333 29.24134 z M33.5 23.50801 L9.5 23.50801 L9.5 11.50801 L24.16667 11.50801 L24.16667 19.50801 C24.16667 20.30801 24.7 20.84134 25.5 20.84134 L33.5 20.84134 L33.5 23.50801 z" display="none" fill-rule="evenOdd" xml:space="default" z-index="1" x="5" y="10" width="32" height="32" style="fill:#FFFFFF;" />
              <path d="M0 -0.325328 A0 0 0 0 1 0 -0.325328 L42 -0.325328 A0 0 0 0 1 42 -0.325328 L42 51.67467 A0 0 0 0 1 42 51.67467 L0 51.67467 A0 0 0 0 1 0 51.67467 z" display="none" opacity="0" xml:space="default" z-index="2" style="fill:#FFFFFF;" />
            </g>
          </g>
          <g display="none" transform="translate(126, 0)" xml:space="default">
            <path d="M0 4.674672 L0 -0.325328 L5 -0.325328 L37 -0.325328 L42 -0.325328 L42 4.674672 L42 46.67467 L42 51.67467 L37 51.67467 L5 51.67467 L0 51.67467 L0 46.67467 z" display="none" stroke-width="0" xml:space="default" style="fill:none;" />
            <g display="none" opacity="0.9" xml:space="default" aria-label="svg" cursor="pointer" user-select="none">
              <path d="M0 -0.325328 A0 0 0 0 1 0 -0.325328 L42 -0.325328 A0 0 0 0 1 42 -0.325328 L42 51.67467 A0 0 0 0 1 42 51.67467 L0 51.67467 A0 0 0 0 1 0 51.67467 z" display="none" stroke-width="0" xml:space="default" cursor="pointer" user-select="none" style="fill:#000000;" />
              <g display="none" transform="translate(5, 26)" xml:space="default" z-index="1" style="fill:#323232;" />
              <path d="M34.43333 19.10801 L25.9 10.57467 C25.63333 10.30801 25.36667 10.17467 24.96667 10.17467 L9.5 10.17467 C8.7 10.17467 8.166667 10.708 8.166667 11.50801 L8.166667 40.84134 C8.166667 41.64134 8.7 42.17467 9.5 42.17467 L33.5 42.17467 C34.3 42.17467 34.83333 41.64134 34.83333 40.84134 L34.83333 20.04134 C34.83333 19.64134 34.7 19.37467 34.43333 19.10801 z M25.5 12.04134 L32.96667 19.50801 L25.5 19.50801 L25.5 12.04134 z M33.5 40.84134 L9.5 40.84134 L9.5 36.84134 L33.5 36.84134 L33.5 40.84134 z M16.16667 30.84134 C16.03333 30.70801 15.63333 30.57467 15.23333 30.44134 C14.83333 30.30801 14.43333 30.17467 14.16667 30.04134 C13.36667 29.64134 13.1 29.10801 13.1 28.44134 C13.1 28.04134 13.23333 27.77467 13.36667 27.50801 C13.63333 27.24134 13.9 26.97467 14.3 26.84134 C14.7 26.70801 15.1 26.57467 15.63333 26.57467 C16.16667 26.57467 16.56667 26.70801 16.96667 26.84134 C17.36667 26.97467 17.63333 27.24134 17.76667 27.50801 C18.03333 27.77467 18.03333 28.17467 18.03333 28.57467 L16.7 28.57467 C16.7 28.30801 16.56667 28.04134 16.43333 27.908 C16.03333 27.64134 15.76667 27.50801 15.36667 27.50801 C14.96667 27.50801 14.83333 27.64134 14.56667 27.77467 C14.43333 27.908 14.3 28.04134 14.3 28.30801 C14.3 28.57467 14.43333 28.70801 14.56667 28.84134 C14.83333 28.97467 15.1 29.10801 15.5 29.24134 C16.3 29.50801 16.83333 29.77467 17.23333 30.17467 C17.63333 30.57467 17.76667 30.97467 17.76667 31.50801 C17.76667 32.04134 17.5 32.57467 17.1 32.84134 C16.7 33.10801 16.16667 33.24134 15.36667 33.24134 C14.83333 33.24134 14.43333 33.10801 14.03333 32.97467 C13.63333 32.84134 13.36667 32.57467 13.1 32.17467 C12.96667 31.908 12.83333 31.50801 12.83333 31.10801 L14.16667 31.10801 C14.16667 31.77467 14.56667 32.17467 15.5 32.17467 C15.76667 32.17467 16.03333 32.17467 16.3 32.04134 C16.43333 31.908 16.56667 31.77467 16.56667 31.50801 C16.56667 31.24134 16.43333 30.97467 16.16667 30.84134 z M18.16667 26.57467 L19.63333 26.57467 L21.1 31.50801 L22.56667 26.57467 L24.03333 26.57467 L21.76667 33.24134 L20.3 33.24134 L18.16667 26.57467 z M26.43333 31.64134 C26.7 32.04134 27.1 32.17467 27.63333 32.17467 C28.16667 32.17467 28.56667 32.04134 28.7 31.908 L28.7 30.70801 L27.5 30.70801 L27.5 29.64134 L30.16667 29.64134 L30.16667 32.30801 C29.9 32.57467 29.63333 32.84134 29.1 32.97467 C28.7 33.10801 28.16667 33.24134 27.63333 33.24134 C27.1 33.24134 26.56667 33.10801 26.16667 32.84134 C25.76667 32.57467 25.36667 32.17467 25.1 31.77467 C24.83333 31.37467 24.7 30.70801 24.7 30.04134 L24.7 29.64134 C24.7 28.97467 24.83333 28.44134 25.1 27.908 C25.36667 27.37467 25.63333 27.10801 26.03333 26.84134 C26.43333 26.57467 26.96667 26.44134 27.5 26.44134 C28.3 26.44134 28.96667 26.57467 29.36667 26.97467 C29.76667 27.37467 30.03333 27.908 30.16667 28.57467 L28.83333 28.57467 C28.83333 28.17467 28.7 27.908 28.43333 27.77467 C28.16667 27.64134 27.76667 27.50801 27.5 27.50801 C27.1 27.50801 26.7 27.64134 26.43333 28.04134 C26.16667 28.44134 26.03333 28.97467 26.03333 29.64134 L26.03333 30.04134 C26.03333 30.70801 26.16667 31.24134 26.43333 31.64134 z M33.5 23.50801 L9.5 23.50801 L9.5 11.50801 L24.16667 11.50801 L24.16667 19.50801 C24.16667 20.30801 24.7 20.84134 25.5 20.84134 L33.5 20.84134 L33.5 23.50801 z" display="none" fill-rule="evenOdd" xml:space="default" z-index="1" x="5" y="10" width="32" height="32" style="fill:#FFFFFF;" />
              <path d="M0 -0.325328 A0 0 0 0 1 0 -0.325328 L42 -0.325328 A0 0 0 0 1 42 -0.325328 L42 51.67467 A0 0 0 0 1 42 51.67467 L0 51.67467 A0 0 0 0 1 0 51.67467 z" display="none" opacity="0" xml:space="default" z-index="2" style="fill:#FFFFFF;" />
            </g>
          </g>
          <g display="none" transform="translate(168, 0)" xml:space="default">
            <path d="M0 4.674672 L0 -0.325328 L5 -0.325328 L37 -0.325328 L42 -0.325328 L42 4.674672 L42 46.67467 L42 51.67467 L37 51.67467 L5 51.67467 L0 51.67467 L0 46.67467 z" display="none" stroke-width="0" xml:space="default" style="fill:none;" />
            <g display="none" opacity="0.7" xml:space="default" aria-label="print" cursor="pointer" user-select="none">
              <title xml:space="default">Print the chart</title>
              <path d="M0 -0.325328 A0 0 0 0 1 0 -0.325328 L42 -0.325328 A0 0 0 0 1 42 -0.325328 L42 51.67467 A0 0 0 0 1 42 51.67467 L0 51.67467 A0 0 0 0 1 0 51.67467 z" display="none" stroke-width="0" xml:space="default" cursor="pointer" user-select="none" style="fill:none;" />
              <g display="none" transform="translate(5, 26)" xml:space="default" z-index="1" style="fill:#323232;" />
              <path d="M36.30992 16.25732 L33.79752 16.25732 L33.79752 11.36475 C33.79752 10.7036 33.2686 10.3069 32.73967 10.3069 L9.995868 10.3069 C9.466942 10.3069 8.938017 10.7036 8.938017 11.36475 L8.938017 16.38955 L6.557851 16.38955 C5.896694 16.25732 5.5 16.65401 5.5 17.31517 L5.5 35.16641 C5.5 35.69533 5.896694 36.22426 6.557851 36.22426 L9.070248 36.22426 L9.070248 41.24905 C8.938017 41.64575 9.466942 42.04244 9.995868 42.04244 L32.8719 42.04244 C33.40083 42.04244 33.92975 41.64575 33.92975 40.98459 L33.92975 35.9598 L36.44215 35.9598 C36.97107 35.9598 37.5 35.5631 37.5 34.90194 L37.5 17.31517 C37.23554 16.65401 36.83884 16.25732 36.30992 16.25732 z M10.52479 11.76145 L32.34298 11.76145 L32.34298 16.25732 L10.52479 16.25732 L10.52479 11.76145 z M32.34298 40.58789 L10.52479 40.58789 L10.52479 26.17467 L32.34298 26.17467 L32.34298 40.58789 z M33.53306 22.20773 C32.60744 22.20773 31.81405 21.41434 31.81405 20.48872 C31.81405 19.5631 32.60744 18.76971 33.53306 18.76971 C34.45868 18.76971 35.25207 19.5631 35.25207 20.48872 C35.25207 21.41434 34.45868 22.20773 33.53306 22.20773 z M30.7562 27.62922 L11.97934 27.62922 L11.97934 29.61269 L30.88843 29.61269 L30.88843 27.62922 z M30.7562 31.59616 L11.97934 31.59616 L11.97934 33.57963 L30.88843 33.57963 L30.88843 31.59616 z M23.88017 35.5631 L11.97934 35.5631 L11.97934 37.54657 L23.88017 37.54657 L23.88017 35.5631 z" display="none" fill-rule="evenOdd" xml:space="default" z-index="1" x="5" y="10" width="32" height="32" style="fill:#FFFFFF;" />
              <path d="M0 -0.325328 A0 0 0 0 1 0 -0.325328 L42 -0.325328 A0 0 0 0 1 42 -0.325328 L42 51.67467 A0 0 0 0 1 42 51.67467 L0 51.67467 A0 0 0 0 1 0 51.67467 z" display="none" opacity="0" xml:space="default" z-index="2" style="fill:#FFFFFF;" />
            </g>
          </g>
        </g>
      </g>
      <g display="none" transform="translate(601.2426, 33.56797)" xml:space="default">
        <path d="M-0.242641 5.432031 L-0.242641 0.432031 L4.757359 0.432031 L28.75736 0.432031 L33.75736 0.432031 L33.75736 5.432031 L33.75736 28.43203 L33.75736 33.43203 L28.75736 33.43203 L4.757359 33.43203 L-0.242641 33.43203 L-0.242641 28.43203 z" display="none" stroke-width="0" xml:space="default" style="fill:none;" />
        <g display="none" xml:space="default" aria-label="export menu" cursor="pointer" user-select="none">
          <title xml:space="default">Export to raster or vector image</title>
          <path d="M-0.242641 3.432031 A3 3 0 0 1 2.754359 0.4320325 L30.75736 0.432031 A3 3 0 0 1 33.75736 3.429031 L33.75736 30.43203 A3 3 0 0 1 30.76036 33.43203 L2.757359 33.43203 A3 3 0 0 1 -0.2426395 30.43503 z" display="none" stroke-width="0" xml:space="default" cursor="pointer" user-select="none" style="fill:none;" />
          <g display="none" transform="translate(0.87868, 16.87868)" xml:space="default" z-index="1" style="fill:#323232;" />
          <path d="M24.25736 20.91953 C23.65736 20.91953 23.25736 21.31953 23.25736 21.91953 L23.25736 22.91953 L11.25736 22.91953 L11.25736 21.91953 C11.25736 21.31953 10.85736 20.91953 10.25736 20.91953 C9.657359 20.91953 9.257359 21.31953 9.257359 21.91953 L9.257359 23.91953 C9.257359 24.51953 9.657359 24.91953 10.25736 24.91953 L24.25736 24.91953 C24.85736 24.91953 25.25736 24.51953 25.25736 23.91953 L25.25736 21.91953 C25.25736 21.31953 24.85736 20.91953 24.25736 20.91953 z M14.45736 14.11953 L16.25736 12.31953 L16.25736 19.91953 C16.25736 20.51953 16.65736 20.91953 17.25736 20.91953 C17.85736 20.91953 18.25736 20.51953 18.25736 19.91953 L18.25736 12.31953 L20.05736 14.11953 C20.45736 14.51953 21.05736 14.51953 21.45736 14.11953 C21.85736 13.71953 21.85736 13.11953 21.45736 12.71953 L17.95736 9.219531 C17.85736 9.119531 17.75736 9.019531 17.65736 9.019531 C17.35736 8.919531 17.15736 8.919531 16.85736 9.019531 C16.75736 9.019531 16.65736 9.119531 16.55736 9.219531 L13.05736 12.71953 C12.65736 13.11953 12.65736 13.71953 13.05736 14.11953 C13.35736 14.51953 14.05736 14.51953 14.45736 14.11953 z" display="none" fill-rule="evenOdd" xml:space="default" z-index="1" x="0.87868" y="0.87868" width="32" height="32" style="fill:#5A5A5A;" />
          <path d="M-0.242641 3.432031 A3 3 0 0 1 2.754359 0.4320325 L30.75736 0.432031 A3 3 0 0 1 33.75736 3.429031 L33.75736 30.43203 A3 3 0 0 1 30.76036 33.43203 L2.757359 33.43203 A3 3 0 0 1 -0.2426395 30.43503 z" display="none" opacity="0" xml:space="default" z-index="2" style="fill:#FFFFFF;" />
        </g>
      </g>
      <g display="none" transform="translate(14, 42.56797)" xml:space="default" z-index="2">
        <path d="M0 5.432031 L0 0.432031 L5 0.432031 L94 0.432031 L99 0.432031 L99 5.432031 L99 20.43203 L99 25.43203 L94 25.43203 L5 25.43203 L0 25.43203 L0 20.43203 z" display="none" stroke-width="0" xml:space="default" style="fill:none;" />
        <g display="none" xml:space="default" z-index="2" aria-label="reset zoom" cursor="pointer" user-select="none">
          <title xml:space="default">Reset Zoom</title>
          <path d="M0.5 3.932031 A3 3 0 0 1 3.497 0.9320325 L95.5 0.932031 A3 3 0 0 1 98.5 3.929031 L98.5 21.93203 A3 3 0 0 1 95.503 24.93203 L3.5 24.93203 A3 3 0 0 1 0.5000015 21.93503 z" display="none" stroke="#BDBDBD" xml:space="default" cursor="pointer" user-select="none" style="fill:#FAFAFA;" />
          <g display="none" transform="translate(27.87868, 5.651492)" xml:space="default" z-index="1" style="fill:#000000;">
            <text xml:space="default" display="none" font-size="13px">
              <tspan xml:space="default" x="0px" y="11.498" display="none" white-space="pre">Reset Zoom</tspan>
            </text>
          </g>
          <path d="M15.14 11.17203 C15.34 11.37203 15.62 11.37203 15.82 11.17203 L18.54 8.452031 C18.86 8.132031 18.62 7.612031 18.18 7.612031 L16.3 7.612031 L16.3 5.332031 C16.3 5.092031 16.14 4.932031 15.9 4.932031 L15.1 4.932031 C14.86 4.932031 14.7 5.092031 14.7 5.332031 L14.7 7.652031 L12.78 7.652031 C12.34 7.652031 12.14 8.172031 12.42 8.492031 L15.14 11.17203 z M13.74 12.57203 L11.02 9.852031 C10.7 9.532031 10.18 9.772031 10.18 10.21203 L10.18 12.13203 L7.9 12.13203 C7.66 12.13203 7.5 12.29203 7.5 12.53203 L7.5 13.33203 C7.5 13.57203 7.66 13.73203 7.9 13.73203 L10.22 13.73203 L10.22 15.65203 C10.22 16.09203 10.74 16.29203 11.06 16.01203 L13.78 13.29203 C13.94 13.09203 13.94 12.77203 13.74 12.57203 z M23.1 12.13203 L20.78 12.13203 L20.78 10.21203 C20.78 9.772031 20.26 9.572031 19.94 9.852031 L17.22 12.57203 C17.02 12.77203 17.02 13.05203 17.22 13.25203 L19.94 15.97203 C20.26 16.29203 20.78 16.05203 20.78 15.61203 L20.78 13.73203 L23.1 13.73203 C23.34 13.73203 23.5 13.57203 23.5 13.33203 L23.5 12.53203 C23.5 12.29203 23.34 12.13203 23.1 12.13203 z M15.86 14.69203 C15.66 14.49203 15.38 14.49203 15.18 14.69203 L12.46 17.41203 C12.14 17.73203 12.38 18.25203 12.82 18.25203 L14.7 18.25203 L14.7 20.53203 C14.7 20.77203 14.86 20.93203 15.1 20.93203 L15.9 20.93203 C16.14 20.93203 16.3 20.77203 16.3 20.53203 L16.3 18.21203 L18.22 18.21203 C18.66 18.21203 18.86 17.69203 18.58 17.37203 L15.86 14.69203 z" display="none" fill-rule="evenOdd" xml:space="default" z-index="1" x="7.87868" y="4.87868" width="16" height="16" style="fill:#5A5A5A;" />
          <path d="M0.5 3.932031 A3 3 0 0 1 3.497 0.9320325 L95.5 0.932031 A3 3 0 0 1 98.5 3.929031 L98.5 21.93203 A3 3 0 0 1 95.503 24.93203 L3.5 24.93203 A3 3 0 0 1 0.5000015 21.93503 z" display="none" opacity="0" xml:space="default" z-index="2" style="fill:#FFFFFF;" />
        </g>
      </g>
    </g>
    <g xml:space="default">
      <g display="none" transform="translate(246.1477, 107.3621)" xml:space="default" pointer-events="none">
        <g display="none" xml:space="default">
          <path d="M0.3523205 2.137931 A2 2 0 0 1 2.350321 0.1379322 L136.3523 0.1379312 A2 2 0 0 1 138.3523 2.135931 L138.3523 39.13793 A2 2 0 0 1 136.3543 41.13793 L2.35232 41.13793 A2 2 0 0 1 0.3523215 39.13993 z" display="none" stroke-linejoin="bevel" transform="translate(5, 5)" xml:space="default" pointer-events="none" style="fill:rgba(0,0,0,0.02352941);" />
          <path d="M0.3523205 2.137931 A2 2 0 0 1 2.350321 0.1379322 L136.3523 0.1379312 A2 2 0 0 1 138.3523 2.135931 L138.3523 39.13793 A2 2 0 0 1 136.3543 41.13793 L2.35232 41.13793 A2 2 0 0 1 0.3523215 39.13993 z" display="none" stroke-linejoin="bevel" transform="translate(2.5, 2.5)" xml:space="default" pointer-events="none" style="fill:rgba(0,0,0,0.05098039);" />
        </g>
        <path d="M0.3523205 2.137931 A2 2 0 0 1 2.350321 0.1379322 L136.3523 0.1379312 A2 2 0 0 1 138.3523 2.135931 L138.3523 39.13793 A2 2 0 0 1 136.3543 41.13793 L2.35232 41.13793 A2 2 0 0 1 0.3523215 39.13993 z" display="none" stroke="#3266BB" stroke-linejoin="bevel" xml:space="default" pointer-events="none" style="fill:url(#_jsc11301);" />
        <g display="none" transform="translate(6.585786, 6.585786)" xml:space="default">
          <text xml:space="default" display="none" font-size="13px">
            <tspan xml:space="default" x="0px" y="11.498" display="none" font-weight="700" white-space="pre">Engagement </tspan>
            <tspan xml:space="default" x="79.23047" y="11.498" display="none" white-space="pre">98 </tspan>
          </text>
          <text xml:space="default" display="none" font-size="13px" transform="translate(0, 14.45438)">
            <tspan xml:space="default" x="0px" y="11.498" display="none">22.07% of Hans Muster</tspan>
          </text>
        </g>
      </g>
    </g>
  </g>
</svg>